<svg xmlns="http://www.w3.org/2000/svg" width="28" height="28" fill="none"><path fill="#A9AABC" fill-rule="evenodd" d="M4.265 16.244a3.594 3.594 0 0 0 1.384 4.368 15.4 15.4 0 0 0 16.703 0 3.594 3.594 0 0 0 1.383-4.368l-.89-2.203a2.6 2.6 0 0 1-.19-.976v-2.41a8.654 8.654 0 1 0-17.309 0v2.41c0 .334-.064.666-.19.976zm16.89-3.18v-2.41a7.154 7.154 0 1 0-14.309 0v2.41c0 .528-.102 1.05-.3 1.54l-.89 2.202c-.377.932-.039 2 .806 2.546a13.9 13.9 0 0 0 15.077 0 2.094 2.094 0 0 0 .806-2.546l-.891-2.203a4.1 4.1 0 0 1-.3-1.538" clip-rule="evenodd"/><path fill="#A9AABC" d="M14 26a4 4 0 0 0 4-4h-8a4 4 0 0 0 4 4"/><circle cx="25.5" cy="2.5" r="2.5" fill="#9360F9"/></svg>