<svg xmlns="http://www.w3.org/2000/svg" width="28" height="28" fill="none"><path fill="#A9AABC" fill-rule="evenodd" d="M6.221 21.778c-.293-.293-.269-.791.053-1.113L20.665 6.274c.323-.323.821-.346 1.114-.053.293.292.27.791-.053 1.113L7.335 21.725c-.322.322-.82.346-1.114.053" clip-rule="evenodd"/><path fill="#A9AABC" fill-rule="evenodd" d="M21.78 21.778c.292-.293.268-.791-.054-1.113L7.336 6.274c-.323-.323-.822-.346-1.115-.053-.293.292-.269.791.053 1.113l14.392 14.391c.322.322.82.346 1.113.053" clip-rule="evenodd"/></svg>