<svg xmlns="http://www.w3.org/2000/svg" width="28" height="28" fill="none"><path stroke="#A9AABC" stroke-linecap="round" stroke-width="1.5" d="M7.333 19.61v-6.042a4.8 4.8 0 0 0-1.064-3.01v0C5.358 9.43 6.16 7.75 7.61 7.75h12.78c1.45 0 2.252 1.68 1.34 2.808v0a4.8 4.8 0 0 0-1.063 3.01v6.682a4 4 0 0 1-4 4h-5.334a4 4 0 0 1-4-4V16"/><path stroke="#A9AABC" stroke-linecap="round" stroke-linejoin="round" stroke-width="1.5" d="M16 19v-6M12 19v-6"/><path stroke="#A9AABC" stroke-linecap="round" stroke-width="1.5" d="M17 4.25c-.358-.32-.781-.5-1.227-.5h-3.546c-.446 0-.87.18-1.227.5"/></svg>