<svg xmlns="http://www.w3.org/2000/svg" width="28" height="28" fill="none"><path fill="#A9AABC" fill-rule="evenodd" d="M3 24.25a.75.75 0 0 1 .75-.75h20.5a.75.75 0 0 1 0 1.5H3.75a.75.75 0 0 1-.75-.75M5.212 12.478a.75.75 0 0 1 1.06-.016l7.554 7.325a.25.25 0 0 0 .348 0l7.554-7.325a.75.75 0 1 1 1.044 1.076l-7.554 7.325a1.75 1.75 0 0 1-2.436 0l-7.554-7.325a.75.75 0 0 1-.016-1.06" clip-rule="evenodd"/><path fill="#A9AABC" fill-rule="evenodd" d="M14 3a.75.75 0 0 1 .75.75v15.5a.75.75 0 0 1-1.5 0V3.75A.75.75 0 0 1 14 3" clip-rule="evenodd"/></svg>