<svg xmlns="http://www.w3.org/2000/svg" width="28" height="28" fill="none"><path stroke="#A9AABC" stroke-width="1.5" d="m23.884 8.155-1.348 1.33-2.02-2.02-2.011-2.011 1.36-1.342a1.25 1.25 0 0 1 1.762.006l2.264 2.263a1.25 1.25 0 0 1-.007 1.774Zm-6.442-1.643 2.014 2.014 2.017 2.017-7.055 7.096c-.19.191-.437.316-.705.355l-3.98.584a.25.25 0 0 1-.283-.283l.585-3.986a1.25 1.25 0 0 1 .35-.7z"/><path fill="#A9AABC" fill-rule="evenodd" d="M3 8a5 5 0 0 1 5-5h4.54a.75.75 0 0 1 0 1.5H8A3.5 3.5 0 0 0 4.5 8v12A3.5 3.5 0 0 0 8 23.5h12a3.5 3.5 0 0 0 3.5-3.5v-2.921a.75.75 0 0 1 1.5 0V20a5 5 0 0 1-5 5H8a5 5 0 0 1-5-5z" clip-rule="evenodd"/></svg>