<svg xmlns="http://www.w3.org/2000/svg" width="28" height="28" fill="none"><path fill="#A9AABC" fill-rule="evenodd" d="M3 10.25A5.75 5.75 0 0 1 8.75 4.5h10.5A5.75 5.75 0 0 1 25 10.25v2.551a.75.75 0 0 1-1.5 0V10.25A4.25 4.25 0 0 0 19.25 6H8.75a4.25 4.25 0 0 0-4.25 4.25v9a4.25 4.25 0 0 0 4.25 4.25h3.75a.75.75 0 0 1 0 1.5H8.75A5.75 5.75 0 0 1 3 19.25z" clip-rule="evenodd"/><path fill="#A9AABC" fill-rule="evenodd" d="M24 10.75H4v-1.5h20zM8 3a.75.75 0 0 1 .75.75v2h-1.5v-2A.75.75 0 0 1 8 3M19 3a.75.75 0 0 1 .75.75v2h-1.5v-2A.75.75 0 0 1 19 3M23.28 17.39a.75.75 0 0 0-1.06 0l-4.778 4.779-.262 1.017a.25.25 0 0 0 .305.305l1.018-.262 4.777-4.777a.75.75 0 0 0 0-1.061m-2.121-1.06a2.25 2.25 0 0 1 3.182 3.182l-4.906 4.907a.83.83 0 0 1-.383.218l-1.194.307a1.75 1.75 0 0 1-2.13-2.131l.307-1.194a.84.84 0 0 1 .218-.383z" clip-rule="evenodd"/></svg>