<svg xmlns="http://www.w3.org/2000/svg" width="28" height="28" fill="none"><path fill="#A9AABC" fill-rule="evenodd" d="M14 23.5a9.5 9.5 0 1 0 0-19 9.5 9.5 0 0 0 0 19m0 1.5c6.075 0 11-4.925 11-11S20.075 3 14 3 3 7.925 3 14s4.925 11 11 11" clip-rule="evenodd"/><path fill="#A9AABC" fill-rule="evenodd" d="m14 12.092-1.42 5.681c-.288 1.153-1.872 1.29-2.355.205l-2.91-6.548a.75.75 0 1 1 1.37-.61l2.616 5.885 1.486-5.947c.316-1.262 2.11-1.262 2.426 0l1.487 5.947 2.615-5.885a.75.75 0 0 1 1.37.61l-2.91 6.548c-.482 1.086-2.066.948-2.355-.205z" clip-rule="evenodd"/><path fill="#A9AABC" fill-rule="evenodd" d="M6.25 14a.75.75 0 0 1 .75-.75h14a.75.75 0 0 1 0 1.5H7a.75.75 0 0 1-.75-.75" clip-rule="evenodd"/></svg>