<svg xmlns="http://www.w3.org/2000/svg" width="28" height="28" fill="none"><path fill="#A9AABC" fill-rule="evenodd" d="M14 12.5a4.5 4.5 0 1 1 0-9 4.5 4.5 0 0 1 0 9m0 1.5a6 6 0 1 1 0-12 6 6 0 0 1 0 12M22.5 24.004v-3.062c0-.895-.504-1.715-1.303-2.12a15.94 15.94 0 0 0-14.394 0 2.38 2.38 0 0 0-1.303 2.12v3.062a.5.5 0 0 0 .578.493l2.979-.473c3.275-.52 6.611-.52 9.886 0l2.979.473a.5.5 0 0 0 .578-.493m-16.374-6.52A3.88 3.88 0 0 0 4 20.942v3.062a2 2 0 0 0 2.314 1.975l2.978-.473a30 30 0 0 1 9.416 0l2.978.473A2 2 0 0 0 24 24.004v-3.062a3.88 3.88 0 0 0-2.126-3.458 17.44 17.44 0 0 0-15.748 0" clip-rule="evenodd"/></svg>