<svg width="28" height="28" viewBox="0 0 28 28" fill="none" xmlns="http://www.w3.org/2000/svg">
<path fill-rule="evenodd" clip-rule="evenodd" d="M4 14C4 13.5858 4.33579 13.25 4.75 13.25L23.25 13.25C23.6642 13.25 24 13.5858 24 14C24 14.4142 23.6642 14.75 23.25 14.75L4.75 14.75C4.33579 14.75 4 14.4142 4 14Z" fill="#6F7290"/>
<path fill-rule="evenodd" clip-rule="evenodd" d="M14 4C14.4142 4 14.75 4.33579 14.75 4.75L14.75 23.25C14.75 23.6642 14.4142 24 14 24C13.5858 24 13.25 23.6642 13.25 23.25L13.25 4.75C13.25 4.33579 13.5858 4 14 4Z" fill="#6F7290"/>
</svg>
