<svg width="28" height="29" viewBox="0 0 28 29" fill="none" xmlns="http://www.w3.org/2000/svg">
<path d="M7.33333 20.1094V14.0683C7.33333 12.9727 6.95769 11.9101 6.26906 11.058V11.058C5.35788 9.93037 6.16044 8.25 7.61017 8.25H20.3898C21.8396 8.25 22.6421 9.93037 21.7309 11.058V11.058C21.0423 11.9101 20.6667 12.9727 20.6667 14.0683V20.75C20.6667 22.9591 18.8758 24.75 16.6667 24.75H11.3333C9.12419 24.75 7.33333 22.9591 7.33333 20.75V16.5" stroke="#E03F3F" stroke-width="1.5" stroke-linecap="round"/>
<path d="M16 19.4999L16 13.4999" stroke="#E03F3F" stroke-width="1.5" stroke-linecap="round" stroke-linejoin="round"/>
<path d="M12 19.4999L12 13.4999" stroke="#E03F3F" stroke-width="1.5" stroke-linecap="round" stroke-linejoin="round"/>
<path d="M17 4.75C16.6421 4.43087 16.219 4.25 15.7732 4.25H12.2268C11.781 4.25 11.3579 4.43087 11 4.75" stroke="#E03F3F" stroke-width="1.5" stroke-linecap="round"/>
</svg>
