<svg xmlns="http://www.w3.org/2000/svg" width="24" height="24" fill="none"><path fill="#C6C6D2" fill-rule="evenodd" d="M16.91 4.5H7.09A2.59 2.59 0 0 0 4.5 7.09v9.82a2.59 2.59 0 0 0 2.59 2.59h9.82a2.59 2.59 0 0 0 2.59-2.59V7.09a2.59 2.59 0 0 0-2.59-2.59M7.09 3A4.09 4.09 0 0 0 3 7.09v9.82A4.09 4.09 0 0 0 7.09 21h9.82c2.258 0 4.09-1.832 4.09-4.09V7.09A4.09 4.09 0 0 0 16.91 3z" clip-rule="evenodd"/><path fill="#C6C6D2" d="M3 7.09A4.09 4.09 0 0 1 7.09 3h9.82A4.09 4.09 0 0 1 21 7.09v.82a.82.82 0 0 1-.818.817H3.818A.82.82 0 0 1 3 7.91z"/><path fill="#C6C6D2" fill-rule="evenodd" d="M6.25 12a.75.75 0 0 1 .75-.75h9a.75.75 0 0 1 0 1.5H7a.75.75 0 0 1-.75-.75M6.25 16a.75.75 0 0 1 .75-.75h6a.75.75 0 0 1 0 1.5H7a.75.75 0 0 1-.75-.75" clip-rule="evenodd"/></svg>