<svg width="24" height="24" viewBox="0 0 24 24" fill="none" xmlns="http://www.w3.org/2000/svg">
<g clip-path="url(#clip0_3429_33302)">
<path fill-rule="evenodd" clip-rule="evenodd" d="M8.45622 18.6507L8.97536 18.8765C10.5707 19.5707 12.3574 19.6902 14.031 19.2147C15.7046 18.7392 17.1615 17.6981 18.1536 16.2689C19.1456 14.8396 19.6114 13.1106 19.4715 11.3764C19.3317 9.64217 18.5948 8.01012 17.3866 6.75829C16.1783 5.50646 14.5734 4.71231 12.8452 4.51116C11.117 4.31 9.3726 4.71428 7.90911 5.65512C6.44561 6.59596 5.35361 8.01513 4.81918 9.67084C4.28474 11.3265 4.34093 13.1163 4.97817 14.7353L5.16778 15.217L3.68881 20.1797C3.68861 20.1804 3.68843 20.181 3.68826 20.1816C3.6887 20.1821 3.68917 20.1825 3.68968 20.183C3.69019 20.1835 3.69069 20.184 3.69117 20.1844C3.69176 20.1842 3.69239 20.1841 3.69306 20.1838L8.45622 18.6507ZM3.58241 15.2847C2.81806 13.3428 2.75066 11.196 3.3917 9.21007C4.03274 7.22411 5.34255 5.52186 7.09796 4.39336C8.85337 3.26486 10.9458 2.77994 13.0186 3.02122C15.0915 3.2625 17.0166 4.21505 18.4658 5.71657C19.9151 7.21809 20.7989 9.17568 20.9667 11.2558C21.1344 13.3359 20.5758 15.4098 19.3858 17.1242C18.1959 18.8385 16.4483 20.0873 14.4409 20.6576C12.4335 21.2279 10.2905 21.0846 8.3769 20.252L4.15266 21.6117C3.00121 21.9823 1.90582 20.9105 2.25129 19.7513L3.58241 15.2847Z" fill="#C6C6D2"/>
</g>
<defs>
<clipPath id="clip0_3429_33302">
<rect width="24" height="24" fill="white"/>
</clipPath>
</defs>
</svg>
