<svg xmlns="http://www.w3.org/2000/svg" width="24" height="24" fill="none"><path fill="#29867A" d="m5.691 14.35 6.223 5.544a.13.13 0 0 0 .172 0l6.223-5.543a6.75 6.75 0 0 0 2.02-6.811 2.6 2.6 0 0 0-.693-1.176l-.331-.323c-2.073-2.018-5.51-1.446-6.816 1.136l-.474.936a.017.017 0 0 1-.03 0l-.474-.936c-1.306-2.581-4.743-3.154-6.816-1.136l-.33.323c-.333.323-.572.729-.694 1.176a6.75 6.75 0 0 0 2.02 6.81"/><path fill="#29867A" fill-rule="evenodd" d="M18.856 6.502c-1.762-1.715-4.683-1.229-5.794.966l-.473.935-.574-.29.573.29a.66.66 0 0 1-1.177 0l.574-.29-.574.29-.473-.935c-1.111-2.195-4.032-2.681-5.795-.966l-.33.323c-.25.243-.43.548-.522.884a6.1 6.1 0 0 0 1.828 6.162l5.88 5.24 5.882-5.24a6.1 6.1 0 0 0 1.828-6.162 1.95 1.95 0 0 0-.522-.884zM12 6.727c1.562-2.832 5.413-3.424 7.753-1.146l.331.322c.414.403.713.91.865 1.468a7.39 7.39 0 0 1-2.213 7.46l-6.222 5.544a.77.77 0 0 1-1.028 0L5.264 14.83a7.39 7.39 0 0 1-2.213-7.46c.152-.558.45-1.065.865-1.468l.33-.322C6.588 3.303 10.439 3.895 12 6.727" clip-rule="evenodd"/></svg>