<svg xmlns="http://www.w3.org/2000/svg" width="24" height="24" fill="none"><path fill="#C6C6D2" fill-rule="evenodd" d="m9.582 3.576-5.573 2.85c-1.345.689-1.345 2.46 0 3.148l5.573 2.85a5.36 5.36 0 0 0 4.836 0l5.573-2.85c1.346-.689 1.346-2.46 0-3.148l-5.573-2.85a5.36 5.36 0 0 0-4.836 0m4.153 1.336a3.86 3.86 0 0 0-3.47 0l-5.573 2.85a.4.4 0 0 0-.162.135A.2.2 0 0 0 4.5 8q0 .05.03.103c.02.031.063.084.162.135l5.573 2.85a3.86 3.86 0 0 0 3.47 0l5.573-2.85c.1-.05.142-.104.162-.135A.2.2 0 0 0 19.5 8a.2.2 0 0 0-.03-.103.4.4 0 0 0-.162-.135z" clip-rule="evenodd"/><path fill="#C6C6D2" fill-rule="evenodd" d="m9.582 11.577-5.573 2.85c-1.345.688-1.345 2.458 0 3.147l5.573 2.85a5.36 5.36 0 0 0 4.836 0l5.573-2.85c1.346-.689 1.346-2.46 0-3.148l-5.573-2.85a5.36 5.36 0 0 0-4.836 0m4.153 1.335a3.86 3.86 0 0 0-3.47 0l-5.573 2.85a.4.4 0 0 0-.162.135.2.2 0 0 0-.03.103q0 .05.03.103c.02.031.063.084.162.135l5.573 2.85a3.86 3.86 0 0 0 3.47 0l5.573-2.85c.1-.05.142-.104.162-.135A.2.2 0 0 0 19.5 16a.2.2 0 0 0-.03-.103.4.4 0 0 0-.162-.135z" clip-rule="evenodd"/><path fill="#C6C6D2" d="M14.418 7.576a5.36 5.36 0 0 0-4.836 0l-5.573 2.85c-1.345.689-1.345 2.46 0 3.148l5.573 2.85a5.36 5.36 0 0 0 4.836 0l5.573-2.85c1.346-.689 1.346-2.46 0-3.148z"/></svg>