<svg width="20" height="20" viewBox="0 0 20 20" fill="none" xmlns="http://www.w3.org/2000/svg">
<path fill-rule="evenodd" clip-rule="evenodd" d="M10 2C10.4142 2 10.75 2.33579 10.75 2.75L10.75 17.25C10.75 17.6642 10.4142 18 10 18C9.58579 18 9.25 17.6642 9.25 17.25L9.25 2.75C9.25 2.33579 9.58579 2 10 2Z" fill="#9360F9"/>
<path fill-rule="evenodd" clip-rule="evenodd" d="M2 10C2 9.58579 2.33579 9.25 2.75 9.25H17.25C17.6642 9.25 18 9.58579 18 10C18 10.4142 17.6642 10.75 17.25 10.75L2.75 10.75C2.33579 10.75 2 10.4142 2 10Z" fill="#9360F9"/>
</svg>
