<svg width="20" height="20" viewBox="0 0 20 20" fill="none" xmlns="http://www.w3.org/2000/svg">
<g clip-path="url(#clip0_6_766)">
<path fill-rule="evenodd" clip-rule="evenodd" d="M5 0C5.78897 0 6.42857 0.639593 6.42857 1.42857V2.85714H13.5716V1.42857C13.5716 0.639593 14.2112 0 15.0001 0C15.7891 0 16.4287 0.639593 16.4287 1.42857V2.85714H17.8571C19.0406 2.85714 20 3.81653 20 5V6.42857H0V5C0 3.81653 0.95939 2.85714 2.14286 2.85714H3.57143V1.42857C3.57143 0.639593 4.21103 0 5 0Z" fill="#364354"/>
<path d="M0 6.42859H20V17.8572C20 19.0406 19.0406 20 17.8571 20H2.14286C0.95939 20 0 19.0406 0 17.8572V6.42859Z" fill="#565D70"/>
</g>
<defs>
<clipPath id="clip0_6_766">
<rect width="20" height="20" fill="white"/>
</clipPath>
</defs>
</svg>
