<svg width="69" height="16" viewBox="0 0 69 16" fill="none" xmlns="http://www.w3.org/2000/svg">
<path d="M4.776 15.336C3.976 15.336 3.368 15.12 2.952 14.688C2.536 14.24 2.328 13.624 2.328 12.84C2.328 11.896 2.464 10.952 2.736 10.008C3.024 9.064 3.368 8.152 3.768 7.272C4.184 6.376 4.592 5.544 4.992 4.776C5.408 3.992 5.744 3.304 6 2.712C6.144 2.376 6.216 2.08 6.216 1.824C6.216 1.488 6.08 1.32 5.808 1.32C5.616 1.32 5.336 1.456 4.968 1.728C4.6 1.984 4.248 2.352 3.912 2.832C3.192 3.84 2.64 4.784 2.256 5.664C1.872 6.544 1.68 7.28 1.68 7.872C1.68 8.144 1.728 8.376 1.824 8.568C1.856 8.616 1.872 8.688 1.872 8.784C1.872 8.912 1.8 8.976 1.656 8.976C1.512 8.976 1.336 8.896 1.128 8.736C0.872 8.528 0.68 8.272 0.552 7.968C0.44 7.664 0.384 7.32 0.384 6.936C0.384 6.408 0.48 5.848 0.672 5.256C0.88 4.664 1.152 4.088 1.488 3.528C1.824 2.952 2.208 2.448 2.64 2.016C3.152 1.504 3.712 1.096 4.32 0.792C4.944 0.488 5.456 0.336 5.856 0.336C6.848 0.336 7.608 0.536 8.136 0.935999C8.68 1.336 8.952 1.824 8.952 2.4C8.952 2.592 8.912 2.808 8.832 3.048C8.592 3.752 8.264 4.56 7.848 5.472C7.448 6.368 7.032 7.296 6.6 8.256C6.184 9.216 5.824 10.144 5.52 11.04C5.232 11.936 5.088 12.728 5.088 13.416C5.088 13.672 5.12 13.88 5.184 14.04C5.264 14.184 5.384 14.256 5.544 14.256C5.88 14.256 6.264 13.984 6.696 13.44C7.128 12.88 7.592 12.136 8.088 11.208C8.584 10.28 9.096 9.256 9.624 8.136C10.04 6.968 10.432 5.96 10.8 5.112C11.184 4.248 11.48 3.656 11.688 3.336C11.976 2.92 12.224 2.648 12.432 2.52C12.64 2.376 12.872 2.304 13.128 2.304C13.4 2.288 13.744 2.28 14.16 2.28C14.592 2.248 14.936 2.272 15.192 2.352C15.448 2.416 15.536 2.496 15.456 2.592C14.896 3.328 14.36 4.192 13.848 5.184C13.352 6.176 12.904 7.192 12.504 8.232C12.12 9.272 11.816 10.24 11.592 11.136C11.368 12.032 11.256 12.76 11.256 13.32C11.256 13.992 11.416 14.328 11.736 14.328C12.12 14.328 12.536 14.096 12.984 13.632C13.432 13.152 13.88 12.536 14.328 11.784C14.792 11.016 15.232 10.2 15.648 9.336C15.792 9.032 15.984 8.56 16.224 7.92C16.464 7.28 16.712 6.576 16.968 5.808C17.224 5.04 17.432 4.296 17.592 3.576C17.768 2.856 17.856 2.264 17.856 1.8C17.856 1.256 17.72 0.983999 17.448 0.983999C17.32 0.983999 17.256 0.935999 17.256 0.839999C17.256 0.791999 17.288 0.735999 17.352 0.672C17.416 0.608 17.504 0.567999 17.616 0.551999C17.888 0.487999 18.168 0.456 18.456 0.456C19.208 0.456 19.728 0.68 20.016 1.128C20.304 1.576 20.448 2.12 20.448 2.76C20.448 3.288 20.376 3.848 20.232 4.44C20.088 5.016 19.92 5.552 19.728 6.048C19.424 6.832 19.056 7.648 18.624 8.496C18.192 9.344 17.704 10.176 17.16 10.992C16.616 11.792 16.032 12.52 15.408 13.176C14.8 13.832 14.168 14.352 13.512 14.736C12.872 15.12 12.224 15.312 11.568 15.312C10.656 15.312 9.952 15.048 9.456 14.52C8.96 13.976 8.704 13.216 8.688 12.24C8.144 13.12 7.544 13.856 6.888 14.448C6.248 15.04 5.544 15.336 4.776 15.336ZM21.9679 15.36C20.7999 15.36 19.9519 15.096 19.4239 14.568C18.9119 14.04 18.6559 13.344 18.6559 12.48C18.6559 11.824 18.7919 11.104 19.0639 10.32C19.2719 9.68 19.5519 9.032 19.9039 8.376C20.2559 7.704 20.6639 7.088 21.1279 6.528C21.5919 5.952 22.1039 5.496 22.6639 5.16C23.2239 4.808 23.8159 4.632 24.4399 4.632C25.2399 4.632 25.8879 4.76 26.3839 5.016C26.8959 5.256 27.1519 5.656 27.1519 6.216C27.1519 6.632 26.9839 7.152 26.6479 7.776C26.1999 8.64 25.5439 9.352 24.6799 9.912C23.8159 10.472 22.8479 10.792 21.7759 10.872C21.5359 11.528 21.3919 12.064 21.3439 12.48C21.3279 12.56 21.3199 12.64 21.3199 12.72C21.3199 12.784 21.3199 12.856 21.3199 12.936C21.3199 13.464 21.4399 13.848 21.6799 14.088C21.9199 14.312 22.2159 14.424 22.5679 14.424C23.2239 14.424 23.7999 14.256 24.2959 13.92C24.7919 13.584 25.2239 13.16 25.5919 12.648C25.9759 12.136 26.3039 11.624 26.5759 11.112C26.7359 10.824 26.8719 10.56 26.9839 10.32C27.0959 10.064 27.1839 9.88 27.2479 9.768C27.3279 9.64 27.4159 9.576 27.5119 9.576C27.6079 9.576 27.6959 9.632 27.7759 9.744C27.8559 9.84 27.8639 9.952 27.7999 10.08C27.5919 10.496 27.3039 11.048 26.9359 11.736C26.5679 12.424 26.1519 13.032 25.6879 13.56C25.1759 14.168 24.6239 14.624 24.0319 14.928C23.4559 15.216 22.7679 15.36 21.9679 15.36ZM22.0879 10.176C22.8079 9.904 23.4399 9.416 23.9839 8.712C24.5439 8.008 24.9199 7.232 25.1119 6.384C25.1279 6.304 25.1359 6.232 25.1359 6.168C25.1519 6.104 25.1599 6.04 25.1599 5.976C25.1599 5.656 25.0639 5.496 24.8719 5.496C24.7119 5.496 24.5439 5.608 24.3679 5.832C24.1119 6.136 23.8399 6.552 23.5519 7.08C23.2639 7.592 23.0079 8.096 22.7839 8.592C22.5599 9.088 22.3919 9.464 22.2799 9.72L22.0879 10.176ZM33.1035 15.168C32.7675 15.168 32.4715 15.104 32.2155 14.976C31.8155 14.784 31.5115 14.448 31.3035 13.968C31.1115 13.488 31.0395 12.968 31.0875 12.408L30.8475 12.864C30.6075 13.328 30.2715 13.8 29.8395 14.28C29.4395 14.728 29.0795 14.984 28.7595 15.048C28.4395 15.112 28.1515 15.136 27.8955 15.12C27.3355 15.072 26.9275 14.808 26.6715 14.328C26.4155 13.832 26.2875 13.264 26.2875 12.624C26.2875 11.904 26.4075 11.2 26.6475 10.512C26.9035 9.808 27.2235 9.08 27.6075 8.328C28.3915 6.856 29.1915 5.864 30.0075 5.352C30.8235 4.824 31.6635 4.584 32.5275 4.632C32.7035 4.648 32.9355 4.688 33.2235 4.752C33.5115 4.8 33.7675 4.856 33.9915 4.92C34.2795 4.456 34.5995 4 34.9515 3.552C35.3035 3.104 35.6715 2.72 36.0555 2.4C36.4555 2.08 36.8555 1.888 37.2555 1.824C37.5275 1.776 37.7915 1.752 38.0475 1.752C38.4635 1.752 38.7755 1.792 38.9835 1.872C39.3515 2.016 39.5355 2.16 39.5355 2.304C39.5355 2.4 39.4555 2.448 39.2955 2.448C39.2315 2.448 39.1435 2.488 39.0315 2.568C38.9195 2.632 38.8155 2.712 38.7195 2.808C38.2875 3.24 37.7995 3.848 37.2555 4.632C36.7115 5.416 36.1835 6.288 35.6715 7.248C35.1595 8.208 34.7115 9.176 34.3275 10.152C34.1675 10.568 34.0155 11.072 33.8715 11.664C33.7275 12.256 33.6555 12.768 33.6555 13.2C33.6555 13.456 33.6875 13.664 33.7515 13.824C33.8155 13.968 33.9195 14.04 34.0635 14.04C34.2875 14.04 34.5355 13.896 34.8075 13.608C35.0795 13.304 35.3515 12.952 35.6235 12.552C35.9915 12.04 36.3035 11.52 36.5595 10.992C36.8315 10.464 37.0395 10.064 37.1835 9.792C37.2155 9.696 37.2955 9.648 37.4235 9.648C37.5355 9.648 37.6315 9.696 37.7115 9.792C37.7915 9.888 37.7915 10 37.7115 10.128C37.4075 10.72 37.0875 11.336 36.7515 11.976C36.4155 12.6 36.0395 13.184 35.6235 13.728C35.3355 14.112 34.9675 14.448 34.5195 14.736C34.0715 15.024 33.5995 15.168 33.1035 15.168ZM29.1195 13.968C29.2955 13.968 29.5355 13.768 29.8395 13.368C30.1595 12.952 30.4395 12.496 30.6795 12C30.7275 11.904 30.8235 11.688 30.9675 11.352C31.1275 11 31.3115 10.576 31.5195 10.08C31.7435 9.584 31.9675 9.064 32.1915 8.52C32.4315 7.976 32.6555 7.456 32.8635 6.96C33.0715 6.464 33.2395 6.048 33.3675 5.712C33.3835 5.68 33.3915 5.632 33.3915 5.568C33.3915 5.424 33.2875 5.352 33.0795 5.352C32.9675 5.352 32.8395 5.376 32.6955 5.424C32.5675 5.472 32.4555 5.536 32.3595 5.616C32.1035 5.824 31.7835 6.216 31.3995 6.792C31.0155 7.368 30.6315 8.048 30.2475 8.832C29.8635 9.6 29.5435 10.392 29.2875 11.208C29.0315 12.008 28.9035 12.744 28.9035 13.416C28.9035 13.784 28.9755 13.968 29.1195 13.968ZM38.025 15.12C37.641 15.12 37.329 15.032 37.089 14.856C36.865 14.68 36.713 14.448 36.633 14.16C36.537 13.824 36.489 13.448 36.489 13.032C36.489 12.504 36.553 11.952 36.681 11.376C36.825 10.784 37.001 10.216 37.209 9.672C37.273 9.496 37.377 9.216 37.521 8.832C37.681 8.448 37.841 8.032 38.001 7.584C38.161 7.12 38.297 6.672 38.409 6.24C38.521 5.808 38.577 5.456 38.577 5.184C38.577 5.008 38.553 4.888 38.505 4.824C38.425 4.696 38.465 4.64 38.625 4.656C38.753 4.672 38.881 4.696 39.009 4.728C39.153 4.744 39.289 4.776 39.417 4.824C40.057 5.032 40.497 5.32 40.737 5.688C40.977 6.04 41.097 6.392 41.097 6.744C41.097 6.808 41.097 6.872 41.097 6.936C41.097 6.984 41.089 7.04 41.073 7.104C41.041 7.28 40.929 7.616 40.737 8.112C40.545 8.608 40.321 9.168 40.065 9.792C39.825 10.416 39.593 11.024 39.369 11.616C39.161 12.208 39.009 12.696 38.913 13.08C38.897 13.144 38.881 13.2 38.865 13.248C38.865 13.28 38.865 13.312 38.865 13.344C38.865 13.536 38.929 13.632 39.057 13.632C39.153 13.632 39.289 13.56 39.465 13.416C39.705 13.192 40.009 12.816 40.377 12.288C40.761 11.744 41.201 11 41.697 10.056C42.065 9.368 42.353 8.688 42.561 8.016C42.785 7.344 42.897 6.752 42.897 6.24C42.897 5.664 42.745 5.232 42.441 4.944C42.377 4.88 42.345 4.848 42.345 4.848C42.345 4.816 42.441 4.792 42.633 4.776C42.713 4.776 42.793 4.776 42.873 4.776C42.969 4.76 43.049 4.752 43.113 4.752C43.961 4.752 44.577 4.896 44.961 5.184C45.361 5.456 45.561 5.784 45.561 6.168C45.561 6.248 45.545 6.352 45.513 6.48C45.401 6.896 45.209 7.408 44.937 8.016C44.681 8.624 44.353 9.256 43.953 9.912C43.681 10.376 43.489 10.776 43.377 11.112C43.265 11.448 43.209 11.768 43.209 12.072C43.209 12.68 43.377 12.984 43.713 12.984C43.985 12.984 44.257 12.808 44.529 12.456C44.721 12.232 44.913 11.96 45.105 11.64C45.313 11.32 45.505 11 45.681 10.68C45.857 10.344 46.001 10.064 46.113 9.84C46.161 9.728 46.249 9.672 46.377 9.672C46.473 9.672 46.561 9.72 46.641 9.816C46.721 9.896 46.729 10 46.665 10.128C46.521 10.4 46.345 10.744 46.137 11.16C45.945 11.56 45.713 11.96 45.441 12.36C45.185 12.744 44.897 13.056 44.577 13.296C44.241 13.552 43.905 13.68 43.569 13.68C43.217 13.68 42.953 13.544 42.777 13.272C42.601 13 42.513 12.688 42.513 12.336C42.513 12.272 42.513 12.208 42.513 12.144C42.513 12.08 42.521 12.016 42.537 11.952C41.849 12.816 41.113 13.56 40.329 14.184C39.545 14.808 38.777 15.12 38.025 15.12ZM47.6501 15.192C47.0741 15.192 46.5541 15.032 46.0901 14.712C45.6261 14.376 45.3941 13.832 45.3941 13.08C45.3941 12.584 45.4741 12.008 45.6341 11.352C45.8101 10.696 46.0261 10.024 46.2821 9.336C46.5381 8.632 46.8021 7.984 47.0741 7.392C47.3621 6.784 47.6181 6.288 47.8421 5.904C48.1941 5.344 48.5861 5 49.0181 4.872C49.4661 4.744 50.0101 4.68 50.6501 4.68C51.1141 4.68 51.4981 4.736 51.8021 4.848C52.1061 4.944 52.1541 5.056 51.9461 5.184C51.6421 5.392 51.2501 5.856 50.7701 6.576C50.2901 7.296 49.8261 8.104 49.3781 9C49.2501 9.256 49.0901 9.6 48.8981 10.032C48.7061 10.448 48.5141 10.896 48.3221 11.376C48.1461 11.84 47.9941 12.288 47.8661 12.72C47.7381 13.136 47.6741 13.48 47.6741 13.752C47.6741 14.152 47.8581 14.352 48.2261 14.352C48.6101 14.352 49.0421 14.168 49.5221 13.8C49.7461 13.624 49.9541 13.424 50.1461 13.2C50.3381 12.976 50.5141 12.752 50.6741 12.528C50.9941 12.096 51.2821 11.632 51.5381 11.136C51.8101 10.624 52.0581 10.144 52.2821 9.696C52.3301 9.6 52.3941 9.552 52.4741 9.552C52.5861 9.552 52.6821 9.608 52.7621 9.72C52.8421 9.832 52.8501 9.952 52.7861 10.08C52.5461 10.56 52.2501 11.128 51.8981 11.784C51.5461 12.424 51.1381 13.016 50.6741 13.56C50.2741 14.024 49.8181 14.416 49.3061 14.736C48.8101 15.04 48.2581 15.192 47.6501 15.192ZM51.0821 3.48C50.8101 3.48 50.5941 3.392 50.4341 3.216C50.2741 3.024 50.1941 2.776 50.1941 2.472C50.1941 2.104 50.2901 1.768 50.4821 1.464C50.6741 1.16 50.9141 0.912 51.2021 0.719999C51.4901 0.527999 51.7861 0.431999 52.0901 0.431999C52.3621 0.431999 52.5781 0.527999 52.7381 0.719999C52.8981 0.895999 52.9781 1.12 52.9781 1.392C52.9781 1.744 52.8821 2.08 52.6901 2.4C52.4981 2.72 52.2581 2.984 51.9701 3.192C51.6821 3.384 51.3861 3.48 51.0821 3.48ZM54.8239 15.384C53.9439 15.384 53.1919 15.152 52.5679 14.688C51.9439 14.208 51.6319 13.488 51.6319 12.528C51.6319 11.792 51.7759 11 52.0639 10.152C52.3679 9.304 52.7599 8.496 53.2399 7.728C53.7359 6.944 54.2799 6.296 54.8719 5.784C55.2399 5.464 55.6399 5.2 56.0719 4.992C56.5039 4.784 56.9359 4.672 57.3679 4.656C58.1039 4.608 58.7519 4.696 59.3119 4.92C59.8719 5.144 60.1519 5.584 60.1519 6.24C60.1519 6.4 60.1279 6.584 60.0799 6.792C60.0479 6.984 59.9759 7.2 59.8639 7.44C59.7039 7.792 59.4959 8.136 59.2399 8.472C58.9999 8.808 58.7919 9.04 58.6159 9.168C58.4399 9.296 58.2639 9.392 58.0879 9.456C57.9119 9.504 57.7519 9.528 57.6079 9.528C57.4479 9.528 57.3039 9.504 57.1759 9.456C57.0639 9.408 56.9679 9.352 56.8879 9.288C57.0959 8.952 57.3039 8.576 57.5119 8.16C57.7199 7.744 57.9039 7.36 58.0639 7.008C58.2239 6.64 58.3199 6.36 58.3519 6.168C58.3679 6.104 58.3759 6.048 58.3759 6C58.3919 5.952 58.3999 5.904 58.3999 5.856C58.3999 5.536 58.2799 5.376 58.0399 5.376C57.8479 5.376 57.6399 5.512 57.4159 5.784C57.0159 6.232 56.6319 6.792 56.2639 7.464C55.8959 8.136 55.5519 8.856 55.2319 9.624C55.1519 9.832 55.0399 10.12 54.8959 10.488C54.7679 10.856 54.6479 11.256 54.5359 11.688C54.4399 12.104 54.3919 12.504 54.3919 12.888C54.3919 13.32 54.4879 13.688 54.6799 13.992C54.8879 14.28 55.2559 14.424 55.7839 14.424C56.2959 14.424 56.7679 14.28 57.1999 13.992C57.6479 13.688 58.0639 13.304 58.4479 12.84C58.8319 12.36 59.1759 11.856 59.4799 11.328C59.7839 10.784 60.0559 10.272 60.2959 9.792C60.3439 9.68 60.4239 9.624 60.5359 9.624C60.6319 9.624 60.7199 9.672 60.7999 9.768C60.8799 9.864 60.8879 9.976 60.8239 10.104C60.5999 10.552 60.3519 11.008 60.0799 11.472C59.8239 11.936 59.5439 12.392 59.2399 12.84C58.7279 13.608 58.1039 14.224 57.3679 14.688C56.6319 15.152 55.7839 15.384 54.8239 15.384ZM63.0304 15.36C61.8624 15.36 61.0144 15.096 60.4864 14.568C59.9744 14.04 59.7184 13.344 59.7184 12.48C59.7184 11.824 59.8544 11.104 60.1264 10.32C60.3344 9.68 60.6144 9.032 60.9664 8.376C61.3184 7.704 61.7264 7.088 62.1904 6.528C62.6544 5.952 63.1664 5.496 63.7264 5.16C64.2864 4.808 64.8784 4.632 65.5024 4.632C66.3024 4.632 66.9504 4.76 67.4464 5.016C67.9584 5.256 68.2144 5.656 68.2144 6.216C68.2144 6.632 68.0464 7.152 67.7104 7.776C67.2624 8.64 66.6064 9.352 65.7424 9.912C64.8784 10.472 63.9104 10.792 62.8384 10.872C62.5984 11.528 62.4544 12.064 62.4064 12.48C62.3904 12.56 62.3824 12.64 62.3824 12.72C62.3824 12.784 62.3824 12.856 62.3824 12.936C62.3824 13.464 62.5024 13.848 62.7424 14.088C62.9824 14.312 63.2784 14.424 63.6304 14.424C64.2864 14.424 64.8624 14.256 65.3584 13.92C65.8544 13.584 66.2864 13.16 66.6544 12.648C67.0384 12.136 67.3664 11.624 67.6384 11.112C67.7984 10.824 67.9344 10.56 68.0464 10.32C68.1584 10.064 68.2464 9.88 68.3104 9.768C68.3904 9.64 68.4784 9.576 68.5744 9.576C68.6704 9.576 68.7584 9.632 68.8384 9.744C68.9184 9.84 68.9264 9.952 68.8624 10.08C68.6544 10.496 68.3664 11.048 67.9984 11.736C67.6304 12.424 67.2144 13.032 66.7504 13.56C66.2384 14.168 65.6864 14.624 65.0944 14.928C64.5184 15.216 63.8304 15.36 63.0304 15.36ZM63.1504 10.176C63.8704 9.904 64.5024 9.416 65.0464 8.712C65.6064 8.008 65.9824 7.232 66.1744 6.384C66.1904 6.304 66.1984 6.232 66.1984 6.168C66.2144 6.104 66.2224 6.04 66.2224 5.976C66.2224 5.656 66.1264 5.496 65.9344 5.496C65.7744 5.496 65.6064 5.608 65.4304 5.832C65.1744 6.136 64.9024 6.552 64.6144 7.08C64.3264 7.592 64.0704 8.096 63.8464 8.592C63.6224 9.088 63.4544 9.464 63.3424 9.72L63.1504 10.176Z" fill="white"/>
</svg>
