<svg width="54" height="13" viewBox="0 0 54 13" fill="none" xmlns="http://www.w3.org/2000/svg">
<g clip-path="url(#clip0_1219_6028)">
<path d="M10.8347 1.08468V6.29359C10.8347 8.62889 9.04172 10.6364 6.71046 10.7456C4.22136 10.863 2.16937 8.87983 2.16937 6.41501V1.08468C2.16532 0.485679 1.68369 0 1.08468 0C0.485679 0 0 0.485679 0 1.08468V6.3462C0 9.87142 2.74004 12.8745 6.26526 13C9.96451 13.1295 13.004 10.1709 13.004 6.50405V1.08468C13.004 0.485679 12.5184 0 11.9194 0C11.3204 0 10.8347 0.485679 10.8347 1.08468Z" fill="white"/>
<path d="M25.4698 10.8347H20.2609C17.9256 10.8347 15.9181 9.04172 15.8088 6.71046C15.6915 4.22136 17.6747 2.16937 20.1395 2.16937H25.4698C26.0688 2.16937 26.5545 1.68369 26.5545 1.08468C26.5545 0.485679 26.0688 0 25.4698 0H20.2083C16.6831 0 13.68 2.74004 13.5545 6.26526C13.425 9.96451 16.3836 13.004 20.0504 13.004H25.4658C26.0648 13.004 26.5504 12.5184 26.5504 11.9194C26.5504 11.3204 26.0648 10.8347 25.4658 10.8347H25.4698Z" fill="white"/>
<path d="M28.1896 2.16532H33.3985C35.7338 2.16532 37.7413 3.95828 37.8506 6.28954C37.9679 8.77864 35.9847 10.8306 33.5199 10.8306H28.1896C27.5906 10.8306 27.1049 11.3163 27.1049 11.9153C27.1049 12.5143 27.5906 13 28.1896 13H33.4511C36.9763 13 39.9795 10.26 40.1049 6.73474C40.2344 3.03954 37.2758 0 33.609 0H28.1937C27.5946 0 27.109 0.485679 27.109 1.08468C27.109 1.68369 27.5946 2.16936 28.1937 2.16936L28.1896 2.16532Z" fill="white"/>
<path d="M25.4698 5.41504H19.7388C19.1397 5.41504 18.6541 5.90067 18.6541 6.49972C18.6541 7.09877 19.1397 7.5844 19.7388 7.5844H25.4698C26.0689 7.5844 26.5545 7.09877 26.5545 6.49972C26.5545 5.90067 26.0689 5.41504 25.4698 5.41504Z" fill="white"/>
<path d="M7.58468 6.81569V1.08468C7.58468 0.485629 7.09906 0 6.5 0C5.90095 0 5.41532 0.485629 5.41532 1.08468V6.81569C5.41532 7.41474 5.90095 7.90037 6.5 7.90037C7.09906 7.90037 7.58468 7.41474 7.58468 6.81569Z" fill="white"/>
<path d="M48.2481 11.9193V5.86447C48.2481 5.26541 47.7625 4.77979 47.1634 4.77979C46.5644 4.77979 46.0788 5.26541 46.0788 5.86447V11.9193C46.0788 12.5183 46.5644 13.0039 47.1634 13.0039C47.7625 13.0039 48.2481 12.5183 48.2481 11.9193Z" fill="white"/>
<path d="M29.2743 11.9151V1.35568C29.2743 0.756625 28.7887 0.270996 28.1896 0.270996C27.5905 0.270996 27.1049 0.756625 27.1049 1.35568V11.9151C27.1049 12.5142 27.5905 12.9998 28.1896 12.9998C28.7887 12.9998 29.2743 12.5142 29.2743 11.9151Z" fill="white"/>
<path d="M51.4941 1.1008V4.74743C51.4941 7.09083 49.5837 9.17925 47.2403 9.22377C44.8969 9.26829 42.8247 7.30939 42.8247 4.88909V1.1008C42.8247 0.501792 42.339 0.0161133 41.74 0.0161133C41.141 0.0161133 40.6554 0.501792 40.6554 1.1008V4.79195C40.6554 8.29289 43.3468 11.3041 46.8397 11.47C50.5713 11.6441 53.6554 8.67334 53.6554 4.97813V1.1008C53.6554 0.501792 53.1697 0.0161133 52.5707 0.0161133C51.9717 0.0161133 51.486 0.501792 51.486 1.1008H51.4941Z" fill="white"/>
</g>
<defs>
<clipPath id="clip0_1219_6028">
<rect width="53.6634" height="13" fill="white"/>
</clipPath>
</defs>
</svg>
