<svg width="20" height="24" viewBox="0 0 20 24" fill="none" xmlns="http://www.w3.org/2000/svg">
<path fill-rule="evenodd" clip-rule="evenodd" d="M0.264966 14.2436C-0.382005 15.8431 0.198715 17.6766 1.64852 18.6119C6.73301 21.8923 13.267 21.8923 18.3515 18.6119C19.8013 17.6766 20.382 15.8431 19.7351 14.2436L18.8442 12.0411C18.7187 11.7309 18.6542 11.3994 18.6542 11.0648V8.65417C18.6542 3.8746 14.7796 0 10 0C5.22045 0 1.34585 3.8746 1.34585 8.65417V11.0648C1.34585 11.3994 1.28135 11.7309 1.15588 12.0411L0.264966 14.2436ZM17.1542 11.0648V8.65417C17.1542 4.70303 13.9512 1.5 10 1.5C6.04888 1.5 2.84585 4.70303 2.84585 8.65417V11.0648C2.84585 11.5922 2.74419 12.1146 2.54643 12.6035L1.65552 14.8061C1.27853 15.7381 1.61691 16.8065 2.46171 17.3515C7.05112 20.3124 12.9489 20.3124 17.5383 17.3515C18.3831 16.8065 18.7215 15.7381 18.3445 14.8061L17.4536 12.6035C17.2558 12.1146 17.1542 11.5922 17.1542 11.0648Z" fill="#A9AABC"/>
<path d="M10 24C12.2091 24 14 22.2091 14 20H6C6 22.2091 7.79086 24 10 24Z" fill="#A9AABC"/>
</svg>
