<svg width="20" height="21" viewBox="0 0 20 21" fill="none" xmlns="http://www.w3.org/2000/svg">
<path d="M10 9.79248C9.67116 9.79248 9.34577 9.86008 9.0441 9.99108L0.883691 13.799L0.864081 13.8085C0.613794 13.9347 0.403461 14.128 0.256505 14.3667C0.109549 14.6054 0.0317383 14.8802 0.0317383 15.1606C0.0317383 15.4409 0.109549 15.7157 0.256505 15.9544C0.403461 16.1932 0.613792 16.3863 0.864081 16.5126L0.885559 16.523L9.02833 20.2946L9.0441 20.3014C9.34577 20.4324 9.67116 20.5 10 20.5C10.3289 20.5 10.6544 20.4327 10.9561 20.3017L19.1163 16.4936L19.136 16.484C19.3863 16.3577 19.5966 16.1646 19.7436 15.9259C19.8905 15.6872 19.9683 15.4123 19.9683 15.132C19.9683 14.8516 19.8905 14.5768 19.7436 14.3381C19.5966 14.0994 19.3863 13.9062 19.136 13.7799L19.1145 13.7695L10.9717 9.99792L10.956 9.99108C10.6543 9.86008 10.3289 9.79248 10 9.79248Z" fill="#565D70"/>
<path d="M10 5.14618C9.67116 5.14618 9.34577 5.21378 9.0441 5.34476L0.883691 9.15268L0.864081 9.16219C0.613794 9.28844 0.403461 9.48166 0.256505 9.72038C0.109549 9.95909 0.0317383 10.2339 0.0317383 10.5142C0.0317383 10.7946 0.109549 11.0694 0.256505 11.3081C0.403461 11.5468 0.613792 11.74 0.864081 11.8663L0.885559 11.8767L9.02833 15.6483L9.0441 15.6551C9.34577 15.7861 9.67116 15.8537 10 15.8537C10.3289 15.8537 10.6544 15.7864 10.9561 15.6554L19.1163 11.8472L19.136 11.8377C19.3863 11.7115 19.5966 11.5182 19.7436 11.2795C19.8905 11.0408 19.9683 10.766 19.9683 10.4857C19.9683 10.2054 19.8905 9.93052 19.7436 9.69181C19.5966 9.45309 19.3863 9.25986 19.136 9.13362L19.1145 9.12324L10.9717 5.35162L10.956 5.34476C10.6543 5.21378 10.3289 5.14618 10 5.14618Z" fill="#364354"/>
<path d="M10 0.5C9.67116 0.5 9.34577 0.567596 9.0441 0.698593L0.883691 4.5065L0.864081 4.51601C0.613794 4.64226 0.403461 4.8355 0.256505 5.0742C0.109549 5.31291 0.0317383 5.58774 0.0317383 5.86806C0.0317383 6.14839 0.109549 6.4232 0.256505 6.66191C0.403461 6.90063 0.613792 7.09386 0.864081 7.2201L0.885559 7.23049L9.02833 11.0021L9.0441 11.009C9.34577 11.14 9.67116 11.2075 10 11.2075C10.3289 11.2075 10.6544 11.1402 10.9561 11.0092L19.1163 7.20104L19.136 7.19153C19.3863 7.06529 19.5966 6.87206 19.7436 6.63334C19.8905 6.39463 19.9683 6.11981 19.9683 5.83949C19.9683 5.55917 19.8905 5.28434 19.7436 5.04563C19.5966 4.80691 19.3863 4.61369 19.136 4.48744L19.1145 4.47706L10.9717 0.705443L10.956 0.698593C10.6543 0.567596 10.3289 0.5 10 0.5Z" fill="#565D70"/>
</svg>
