<svg width="20" height="20" viewBox="0 0 20 20" fill="none" xmlns="http://www.w3.org/2000/svg">
<path fill-rule="evenodd" clip-rule="evenodd" d="M4.34478 4.34467C4.63768 4.05178 5.1125 4.05173 5.40533 4.34456L15.6562 14.5954C15.949 14.8882 15.949 15.3631 15.6561 15.6559C15.3632 15.9488 14.8883 15.9489 14.5955 15.6561L4.34467 5.40522C4.05184 5.11239 4.05189 4.63756 4.34478 4.34467Z" fill="#A9AABC"/>
<path fill-rule="evenodd" clip-rule="evenodd" d="M4.34467 15.6562C4.05178 15.3633 4.05173 14.8885 4.34456 14.5956L14.5954 4.3448C14.8882 4.05197 15.3631 4.05202 15.6559 4.34492C15.9488 4.63781 15.9489 5.11263 15.6561 5.40546L5.40522 15.6563C5.11239 15.9491 4.63756 15.9491 4.34467 15.6562Z" fill="#A9AABC"/>
</svg>
