<svg xmlns="http://www.w3.org/2000/svg" width="40" height="40" fill="none"><g filter="url(#a)"><g filter="url(#b)"><path fill="url(#c)" d="m4.067 15.288.115.898c.35 2.755 1.674 5.299 3.737 7.18l11.349 10.35c.413.378 1.05.378 1.464 0l11.35-10.35a11.72 11.72 0 0 0 3.736-7.18l.115-.898a8.4 8.4 0 0 0-.663-4.493l-.032-.072a8 8 0 0 0-1.13-1.822c-2.968-3.588-8.399-3.893-11.757-.662l-.442.425L20 10.807l-1.91-2.143-.44-.425c-3.36-3.231-8.79-2.926-11.757.662a8 8 0 0 0-1.13 1.822l-.033.072a8.4 8.4 0 0 0-.663 4.493"/><path fill="url(#d)" d="m4.067 15.288.115.898c.35 2.755 1.674 5.299 3.737 7.18l11.349 10.35c.413.378 1.05.378 1.464 0l11.35-10.35a11.72 11.72 0 0 0 3.736-7.18l.115-.898a8.4 8.4 0 0 0-.663-4.493l-.032-.072a8 8 0 0 0-1.13-1.822c-2.968-3.588-8.399-3.893-11.757-.662l-.442.425L20 10.807l-1.91-2.143-.44-.425c-3.36-3.231-8.79-2.926-11.757.662a8 8 0 0 0-1.13 1.822l-.033.072a8.4 8.4 0 0 0-.663 4.493"/></g><g filter="url(#e)"><path fill="#fff" fill-opacity=".6" d="M14 26.79 20.032 32 31 21l-10.968 8.105z"/></g></g><defs><filter id="a" width="40" height="36" x="0" y="2" color-interpolation-filters="sRGB" filterUnits="userSpaceOnUse"><feFlood flood-opacity="0" result="BackgroundImageFix"/><feColorMatrix in="SourceAlpha" result="hardAlpha" values="0 0 0 0 0 0 0 0 0 0 0 0 0 0 0 0 0 0 127 0"/><feOffset/><feGaussianBlur stdDeviation=".5"/><feComposite in2="hardAlpha" operator="out"/><feColorMatrix values="0 0 0 0 1 0 0 0 0 1 0 0 0 0 1 0 0 0 0.4 0"/><feBlend in2="BackgroundImageFix" result="effect1_dropShadow_3429_33620"/><feColorMatrix in="SourceAlpha" result="hardAlpha" values="0 0 0 0 0 0 0 0 0 0 0 0 0 0 0 0 0 0 127 0"/><feOffset/><feGaussianBlur stdDeviation="2"/><feComposite in2="hardAlpha" operator="out"/><feColorMatrix values="0 0 0 0 1 0 0 0 0 1 0 0 0 0 1 0 0 0 0.12 0"/><feBlend in2="effect1_dropShadow_3429_33620" result="effect2_dropShadow_3429_33620"/><feBlend in="SourceGraphic" in2="effect2_dropShadow_3429_33620" result="shape"/></filter><filter id="b" width="33" height="30.25" x="3.75" y="4.75" color-interpolation-filters="sRGB" filterUnits="userSpaceOnUse"><feFlood flood-opacity="0" result="BackgroundImageFix"/><feBlend in="SourceGraphic" in2="BackgroundImageFix" result="shape"/><feColorMatrix in="SourceAlpha" result="hardAlpha" values="0 0 0 0 0 0 0 0 0 0 0 0 0 0 0 0 0 0 127 0"/><feOffset dx=".75" dy="1.5"/><feGaussianBlur stdDeviation=".5"/><feComposite in2="hardAlpha" k2="-1" k3="1" operator="arithmetic"/><feColorMatrix values="0 0 0 0 1 0 0 0 0 1 0 0 0 0 1 0 0 0 0.8 0"/><feBlend in2="shape" result="effect1_innerShadow_3429_33620"/><feColorMatrix in="SourceAlpha" result="hardAlpha" values="0 0 0 0 0 0 0 0 0 0 0 0 0 0 0 0 0 0 127 0"/><feOffset dx=".75" dy="-1"/><feGaussianBlur stdDeviation=".5"/><feComposite in2="hardAlpha" k2="-1" k3="1" operator="arithmetic"/><feColorMatrix values="0 0 0 0 1 0 0 0 0 1 0 0 0 0 1 0 0 0 0.9 0"/><feBlend in2="effect1_innerShadow_3429_33620" result="effect2_innerShadow_3429_33620"/><feColorMatrix in="SourceAlpha" result="hardAlpha" values="0 0 0 0 0 0 0 0 0 0 0 0 0 0 0 0 0 0 127 0"/><feOffset dx="-.25" dy="-1.25"/><feGaussianBlur stdDeviation="1"/><feComposite in2="hardAlpha" k2="-1" k3="1" operator="arithmetic"/><feColorMatrix values="0 0 0 0 0.187326 0 0 0 0 0.103819 0 0 0 0 0.437847 0 0 0 0.6 0"/><feBlend in2="effect2_innerShadow_3429_33620" result="effect3_innerShadow_3429_33620"/><feColorMatrix in="SourceAlpha" result="hardAlpha" values="0 0 0 0 0 0 0 0 0 0 0 0 0 0 0 0 0 0 127 0"/><feOffset dy="1"/><feGaussianBlur stdDeviation=".5"/><feComposite in2="hardAlpha" k2="-1" k3="1" operator="arithmetic"/><feColorMatrix values="0 0 0 0 0.398928 0 0 0 0 0.358229 0 0 0 0 0.800104 0 0 0 0.5 0"/><feBlend in2="effect3_innerShadow_3429_33620" result="effect4_innerShadow_3429_33620"/></filter><filter id="e" width="23" height="17" x="11" y="18" color-interpolation-filters="sRGB" filterUnits="userSpaceOnUse"><feFlood flood-opacity="0" result="BackgroundImageFix"/><feBlend in="SourceGraphic" in2="BackgroundImageFix" result="shape"/><feGaussianBlur result="effect1_foregroundBlur_3429_33620" stdDeviation="1.5"/></filter><linearGradient id="c" x1="25.951" x2="17.439" y1="5.449" y2="28.544" gradientUnits="userSpaceOnUse"><stop stop-color="#B2C6F9"/><stop offset=".29" stop-color="#B1B6FA"/><stop offset=".624" stop-color="#FCCFFA"/><stop offset="1" stop-color="#FCE6FC"/></linearGradient><linearGradient id="d" x1="5.934" x2="30.062" y1="5.985" y2="28.721" gradientUnits="userSpaceOnUse"><stop stop-color="#AA99FD" stop-opacity="0"/><stop offset=".3" stop-color="#BB99FD" stop-opacity=".8"/><stop offset=".55" stop-color="#AA99FD" stop-opacity=".4"/><stop offset=".75" stop-color="#CB99FD" stop-opacity=".4"/><stop offset=".93" stop-color="#AA99FD" stop-opacity="0"/></linearGradient></defs></svg>